# xmcd
#
# Track frame offsets: 
#        150
#        17829
#        32088
#        46351
#        75290
#
# Disc length: 1850 seconds
#
# Revision: 0
# Processed by: cddbd v1.5.2PL0 Copyright (c) Steve Scherf et al.
# Submitted via: ExactAudioCopyFreeDBPlugin 1.0
#
DISCID=2e073805
DTITLE=Virgis Stakenas - Kelio vyrai
DYEAR=2005
DGENRE=Country
TTITLE0=Kelio vyrai (jubiliejine versija)
TTITLE1=Kelio vyrai
TTITLE2=Kelio vyrai (instrumentine versija)
TTITLE3=Kelio vyrai (karaoke)
TTITLE4=Kelio vyrai (videoklipas)
EXTD=
EXTT0=
EXTT1=
EXTT2=
EXTT3=
EXTT4=
PLAYORDER=
